<mxfile host="app.diagrams.net" modified="2023-05-15T11:48:43.893Z" agent="Mozilla/5.0 (Windows NT 10.0; Win64; x64) AppleWebKit/537.36 (KHTML, like Gecko) Chrome/113.0.0.0 Safari/537.36" etag="ufjfByPX1flw8aI_3tzQ" version="21.3.0" type="device">
  <diagram name="Page-1" id="SFB6Ob2yC2uh0CHjvCDm">
    <mxGraphModel dx="912" dy="795" grid="1" gridSize="10" guides="1" tooltips="1" connect="1" arrows="1" fold="1" page="1" pageScale="1" pageWidth="827" pageHeight="1169" math="0" shadow="0">
      <root>
        <mxCell id="0" />
        <mxCell id="1" parent="0" />
        <mxCell id="0tAzYiy4o8bDGoPi2LhQ-12" value="" style="rounded=0;whiteSpace=wrap;html=1;" vertex="1" parent="1">
          <mxGeometry x="50" y="20" width="660" height="260" as="geometry" />
        </mxCell>
        <mxCell id="0tAzYiy4o8bDGoPi2LhQ-13" value="LOGO" style="ellipse;whiteSpace=wrap;html=1;aspect=fixed;" vertex="1" parent="1">
          <mxGeometry x="70" y="30" width="80" height="80" as="geometry" />
        </mxCell>
        <mxCell id="0tAzYiy4o8bDGoPi2LhQ-15" value="HEADER" style="text;html=1;align=center;verticalAlign=middle;resizable=0;points=[];autosize=1;strokeColor=none;fillColor=none;" vertex="1" parent="1">
          <mxGeometry x="320" width="70" height="30" as="geometry" />
        </mxCell>
        <mxCell id="0tAzYiy4o8bDGoPi2LhQ-17" value="UL+ LI" style="rounded=0;whiteSpace=wrap;html=1;" vertex="1" parent="1">
          <mxGeometry x="345" y="50" width="360" height="60" as="geometry" />
        </mxCell>
        <mxCell id="0tAzYiy4o8bDGoPi2LhQ-18" value="NAV-BAR" style="text;html=1;align=center;verticalAlign=middle;resizable=0;points=[];autosize=1;strokeColor=none;fillColor=none;" vertex="1" parent="1">
          <mxGeometry x="485" y="20" width="80" height="30" as="geometry" />
        </mxCell>
        <mxCell id="0tAzYiy4o8bDGoPi2LhQ-21" value="BACKGROUND-IMAGE" style="rounded=0;whiteSpace=wrap;html=1;" vertex="1" parent="1">
          <mxGeometry x="165" y="150" width="460" height="110" as="geometry" />
        </mxCell>
        <mxCell id="0tAzYiy4o8bDGoPi2LhQ-22" value="TEXT" style="rounded=0;whiteSpace=wrap;html=1;" vertex="1" parent="1">
          <mxGeometry x="170" y="230" width="170" height="30" as="geometry" />
        </mxCell>
        <mxCell id="0tAzYiy4o8bDGoPi2LhQ-23" value="BOUTTON" style="rounded=0;whiteSpace=wrap;html=1;" vertex="1" parent="1">
          <mxGeometry x="560" y="230" width="65" height="30" as="geometry" />
        </mxCell>
        <mxCell id="0tAzYiy4o8bDGoPi2LhQ-25" value="" style="rounded=0;whiteSpace=wrap;html=1;" vertex="1" parent="1">
          <mxGeometry x="37" y="330" width="686" height="390" as="geometry" />
        </mxCell>
        <mxCell id="0tAzYiy4o8bDGoPi2LhQ-28" value="" style="rounded=0;whiteSpace=wrap;html=1;" vertex="1" parent="1">
          <mxGeometry x="60" y="360" width="350" height="330" as="geometry" />
        </mxCell>
        <mxCell id="0tAzYiy4o8bDGoPi2LhQ-29" value="" style="rounded=0;whiteSpace=wrap;html=1;" vertex="1" parent="1">
          <mxGeometry x="440" y="360" width="270" height="360" as="geometry" />
        </mxCell>
        <mxCell id="0tAzYiy4o8bDGoPi2LhQ-30" value="MID-PAGE" style="text;html=1;align=center;verticalAlign=middle;resizable=0;points=[];autosize=1;strokeColor=none;fillColor=none;" vertex="1" parent="1">
          <mxGeometry x="350" y="300" width="80" height="30" as="geometry" />
        </mxCell>
        <mxCell id="0tAzYiy4o8bDGoPi2LhQ-35" value="LOGO" style="rounded=0;whiteSpace=wrap;html=1;" vertex="1" parent="1">
          <mxGeometry x="70" y="370" width="45" height="30" as="geometry" />
        </mxCell>
        <mxCell id="0tAzYiy4o8bDGoPi2LhQ-36" value="&amp;lt;H1&amp;gt;" style="rounded=0;whiteSpace=wrap;html=1;" vertex="1" parent="1">
          <mxGeometry x="150" y="370" width="100" height="30" as="geometry" />
        </mxCell>
        <mxCell id="0tAzYiy4o8bDGoPi2LhQ-38" value="&amp;lt;P&amp;gt;" style="rounded=0;whiteSpace=wrap;html=1;" vertex="1" parent="1">
          <mxGeometry x="85" y="440" width="260" height="200" as="geometry" />
        </mxCell>
        <mxCell id="0tAzYiy4o8bDGoPi2LhQ-39" value="ARTICLE" style="text;html=1;align=center;verticalAlign=middle;resizable=0;points=[];autosize=1;strokeColor=none;fillColor=none;" vertex="1" parent="1">
          <mxGeometry x="165" y="330" width="70" height="30" as="geometry" />
        </mxCell>
        <mxCell id="0tAzYiy4o8bDGoPi2LhQ-41" value="ASIDE" style="text;html=1;align=center;verticalAlign=middle;resizable=0;points=[];autosize=1;strokeColor=none;fillColor=none;" vertex="1" parent="1">
          <mxGeometry x="530" y="330" width="60" height="30" as="geometry" />
        </mxCell>
        <mxCell id="0tAzYiy4o8bDGoPi2LhQ-42" value="&amp;lt;H2&amp;gt;" style="rounded=0;whiteSpace=wrap;html=1;" vertex="1" parent="1">
          <mxGeometry x="515" y="380" width="120" height="60" as="geometry" />
        </mxCell>
        <mxCell id="0tAzYiy4o8bDGoPi2LhQ-43" value="LOGO" style="rounded=0;whiteSpace=wrap;html=1;" vertex="1" parent="1">
          <mxGeometry x="515" y="460" width="120" height="60" as="geometry" />
        </mxCell>
        <mxCell id="0tAzYiy4o8bDGoPi2LhQ-44" value="&amp;lt;P&amp;gt;" style="rounded=0;whiteSpace=wrap;html=1;" vertex="1" parent="1">
          <mxGeometry x="515" y="540" width="120" height="60" as="geometry" />
        </mxCell>
        <mxCell id="0tAzYiy4o8bDGoPi2LhQ-45" value="LIEN + IMAGES" style="rounded=0;whiteSpace=wrap;html=1;" vertex="1" parent="1">
          <mxGeometry x="470" y="690" width="210" height="30" as="geometry" />
        </mxCell>
        <mxCell id="0tAzYiy4o8bDGoPi2LhQ-48" value="NAV-LINKS" style="text;html=1;align=center;verticalAlign=middle;resizable=0;points=[];autosize=1;strokeColor=none;fillColor=none;" vertex="1" parent="1">
          <mxGeometry x="530" y="650" width="90" height="30" as="geometry" />
        </mxCell>
        <mxCell id="0tAzYiy4o8bDGoPi2LhQ-49" value="" style="rounded=0;whiteSpace=wrap;html=1;" vertex="1" parent="1">
          <mxGeometry x="32.5" y="780" width="627.5" height="180" as="geometry" />
        </mxCell>
        <mxCell id="0tAzYiy4o8bDGoPi2LhQ-50" value="FOOTER" style="text;html=1;align=center;verticalAlign=middle;resizable=0;points=[];autosize=1;strokeColor=none;fillColor=none;" vertex="1" parent="1">
          <mxGeometry x="311.25" y="750" width="70" height="30" as="geometry" />
        </mxCell>
        <mxCell id="0tAzYiy4o8bDGoPi2LhQ-53" value="" style="rounded=0;whiteSpace=wrap;html=1;" vertex="1" parent="1">
          <mxGeometry x="50" y="810" width="170" height="140" as="geometry" />
        </mxCell>
        <mxCell id="0tAzYiy4o8bDGoPi2LhQ-55" value="LOG-IN" style="text;html=1;align=center;verticalAlign=middle;resizable=0;points=[];autosize=1;strokeColor=none;fillColor=none;" vertex="1" parent="1">
          <mxGeometry x="90" y="780" width="60" height="30" as="geometry" />
        </mxCell>
        <mxCell id="0tAzYiy4o8bDGoPi2LhQ-58" value="h3" style="rounded=0;whiteSpace=wrap;html=1;" vertex="1" parent="1">
          <mxGeometry x="90" y="820" width="60" height="30" as="geometry" />
        </mxCell>
        <mxCell id="0tAzYiy4o8bDGoPi2LhQ-59" value="form" style="rounded=0;whiteSpace=wrap;html=1;" vertex="1" parent="1">
          <mxGeometry x="60" y="870" width="80" height="30" as="geometry" />
        </mxCell>
        <mxCell id="0tAzYiy4o8bDGoPi2LhQ-60" value="boutton" style="rounded=0;whiteSpace=wrap;html=1;" vertex="1" parent="1">
          <mxGeometry x="150" y="910" width="63.75" height="30" as="geometry" />
        </mxCell>
        <mxCell id="0tAzYiy4o8bDGoPi2LhQ-61" value="form" style="rounded=0;whiteSpace=wrap;html=1;" vertex="1" parent="1">
          <mxGeometry x="60" y="910" width="80" height="30" as="geometry" />
        </mxCell>
        <mxCell id="0tAzYiy4o8bDGoPi2LhQ-62" value="" style="rounded=0;whiteSpace=wrap;html=1;" vertex="1" parent="1">
          <mxGeometry x="270" y="825" width="170" height="90" as="geometry" />
        </mxCell>
        <mxCell id="0tAzYiy4o8bDGoPi2LhQ-63" value="CLASS" style="text;html=1;align=center;verticalAlign=middle;resizable=0;points=[];autosize=1;strokeColor=none;fillColor=none;" vertex="1" parent="1">
          <mxGeometry x="325" y="790" width="60" height="30" as="geometry" />
        </mxCell>
        <mxCell id="0tAzYiy4o8bDGoPi2LhQ-64" value="h3" style="rounded=0;whiteSpace=wrap;html=1;" vertex="1" parent="1">
          <mxGeometry x="290" y="830" width="36" height="25" as="geometry" />
        </mxCell>
        <mxCell id="0tAzYiy4o8bDGoPi2LhQ-65" value="IMAGES&amp;nbsp;" style="rounded=0;whiteSpace=wrap;html=1;" vertex="1" parent="1">
          <mxGeometry x="280" y="860" width="150" height="55" as="geometry" />
        </mxCell>
        <mxCell id="0tAzYiy4o8bDGoPi2LhQ-66" value="" style="rounded=0;whiteSpace=wrap;html=1;" vertex="1" parent="1">
          <mxGeometry x="485" y="820" width="165" height="120" as="geometry" />
        </mxCell>
        <mxCell id="0tAzYiy4o8bDGoPi2LhQ-67" value="CLASS 2" style="text;html=1;align=center;verticalAlign=middle;resizable=0;points=[];autosize=1;strokeColor=none;fillColor=none;" vertex="1" parent="1">
          <mxGeometry x="540" y="780" width="70" height="30" as="geometry" />
        </mxCell>
        <mxCell id="0tAzYiy4o8bDGoPi2LhQ-70" value="h3" style="rounded=0;whiteSpace=wrap;html=1;" vertex="1" parent="1">
          <mxGeometry x="500" y="830" width="36" height="25" as="geometry" />
        </mxCell>
        <mxCell id="0tAzYiy4o8bDGoPi2LhQ-71" value="IMAGES&amp;nbsp;" style="rounded=0;whiteSpace=wrap;html=1;" vertex="1" parent="1">
          <mxGeometry x="492.5" y="880" width="150" height="55" as="geometry" />
        </mxCell>
      </root>
    </mxGraphModel>
  </diagram>
</mxfile>
